# xmcd
#
# Track frame offsets: 
#        150
#        13162
#        25537
#        47850
#        62798
#        72698
#        92179
#        109598
#        125273
#        152461
#        167461
#
# Disc length: 2467 seconds
#
# Revision: 0
# Processed by: cddbd v1.5.2PL0 Copyright (c) Steve Scherf et al.
# Submitted via: ExactAudioCopyFreeDBPlugin 1.0
#
DISCID=8909a10b
DTITLE=Chelsea Wolfe - The Grime And The Glow
DYEAR=2010
DGENRE=No, thanks.
TTITLE0=Advice and Vices
TTITLE1=Cousins Of The Antichrist
TTITLE2=Moses
TTITLE3=Deep Talks
TTITLE4=Fang
TTITLE5=Benjamin
TTITLE6=The Whys
TTITLE7=Noorus
TTITLE8=Halfsleeper
TTITLE9=Bounce House Demons
TTITLE10=Widow
EXTD=
EXTT0=
EXTT1=
EXTT2=
EXTT3=
EXTT4=
EXTT5=
EXTT6=
EXTT7=
EXTT8=
EXTT9=
EXTT10=
PLAYORDER=
